<svg width="909" height="520" viewBox="0 0 909 520" fill="none" xmlns="http://www.w3.org/2000/svg">
<path d="M44.1699 196.637V318.357H24V196.637H44.1699Z" fill="white"/>
<path d="M188.663 220.281C196.33 220.281 203.171 221.857 209.187 225.009C215.32 228.162 220.097 232.832 223.518 239.02C227.056 245.208 228.826 252.681 228.826 261.438V318.357H208.833V264.415C208.833 255.775 206.651 249.178 202.286 244.625C197.922 239.954 191.965 237.619 184.417 237.619C176.868 237.619 170.852 239.954 166.37 244.625C162.006 249.178 159.823 255.775 159.823 264.415V318.357H139.83V264.415C139.83 255.775 137.648 249.178 133.284 244.625C128.92 239.954 122.963 237.619 115.414 237.619C107.865 237.619 101.85 239.954 97.3675 244.625C93.0032 249.178 90.8211 255.775 90.8211 264.415V318.357H70.6512V221.857H90.8211V232.891C94.1238 228.921 98.3111 225.827 103.383 223.608C108.455 221.39 113.881 220.281 119.661 220.281C127.445 220.281 134.405 221.915 140.538 225.184C146.672 228.454 151.39 233.182 154.692 239.371C157.641 233.533 162.241 228.921 168.493 225.535C174.744 222.032 181.468 220.281 188.663 220.281Z" fill="white"/>
<path d="M247.768 269.669C247.768 259.978 249.773 251.397 253.784 243.924C257.912 236.452 263.456 230.672 270.415 226.586C277.492 222.382 285.277 220.281 293.77 220.281C301.437 220.281 308.101 221.799 313.763 224.834C319.542 227.753 324.142 231.431 327.563 235.868V221.857H347.91V318.357H327.563V303.996C324.142 308.55 319.483 312.344 313.586 315.38C307.688 318.416 300.965 319.933 293.416 319.933C285.041 319.933 277.374 317.832 270.415 313.629C263.456 309.308 257.912 303.354 253.784 295.765C249.773 288.059 247.768 279.36 247.768 269.669ZM327.563 270.019C327.563 263.364 326.148 257.585 323.317 252.681C320.604 247.777 317.006 244.041 312.524 241.472C308.042 238.904 303.206 237.619 298.016 237.619C292.826 237.619 287.99 238.904 283.508 241.472C279.026 243.924 275.369 247.602 272.538 252.506C269.825 257.293 268.469 263.014 268.469 269.669C268.469 276.324 269.825 282.162 272.538 287.183C275.369 292.203 279.026 296.056 283.508 298.742C288.108 301.311 292.944 302.595 298.016 302.595C303.206 302.595 308.042 301.311 312.524 298.742C317.006 296.173 320.604 292.437 323.317 287.533C326.148 282.513 327.563 276.675 327.563 270.019Z" fill="white"/>
<path d="M413.68 220.281C421.229 220.281 427.894 221.799 433.673 224.834C439.571 227.753 444.171 231.431 447.474 235.868V221.857H467.821V319.933C467.821 328.807 465.934 336.688 462.159 343.577C458.385 350.582 452.9 356.07 445.705 360.04C438.627 364.01 430.135 365.994 420.227 365.994C407.016 365.994 396.047 362.9 387.318 356.712C378.59 350.641 373.636 342.351 372.456 331.843H392.449C393.982 336.863 397.226 340.891 402.18 343.927C407.252 347.08 413.268 348.656 420.227 348.656C428.366 348.656 434.912 346.204 439.866 341.3C444.938 336.396 447.474 329.274 447.474 319.933V303.821C444.053 308.374 439.394 312.227 433.497 315.38C427.717 318.416 421.111 319.933 413.68 319.933C405.188 319.933 397.403 317.832 390.326 313.629C383.367 309.308 377.823 303.354 373.695 295.765C369.684 288.059 367.679 279.36 367.679 269.669C367.679 259.978 369.684 251.397 373.695 243.924C377.823 236.452 383.367 230.672 390.326 226.586C397.403 222.382 405.188 220.281 413.68 220.281ZM447.474 270.019C447.474 263.364 446.058 257.585 443.228 252.681C440.515 247.777 436.917 244.041 432.435 241.472C427.953 238.904 423.117 237.619 417.927 237.619C412.737 237.619 407.901 238.904 403.419 241.472C398.936 243.924 395.28 247.602 392.449 252.506C389.736 257.293 388.38 263.014 388.38 269.669C388.38 276.324 389.736 282.162 392.449 287.183C395.28 292.203 398.936 296.056 403.419 298.742C408.019 301.311 412.855 302.595 417.927 302.595C423.117 302.595 427.953 301.311 432.435 298.742C436.917 296.173 440.515 292.437 443.228 287.533C446.058 282.513 447.474 276.675 447.474 270.019Z" fill="white"/>
<path d="M514.483 221.857L514.015 318.357H494.079L494.313 221.857H514.483Z" fill="white"/>
<path d="M590.15 220.281C597.817 220.281 604.659 221.857 610.674 225.009C616.808 228.162 621.585 232.832 625.006 239.02C628.426 245.208 630.137 252.681 630.137 261.438V318.357H610.144V264.415C610.144 255.775 607.961 249.178 603.597 244.625C599.233 239.954 593.276 237.619 585.727 237.619C578.178 237.619 572.163 239.954 567.681 244.625C563.316 249.178 561.134 255.775 561.134 264.415V318.357H540.964V221.857H561.134V232.891C564.437 228.921 568.624 225.827 573.696 223.608C578.886 221.39 584.371 220.281 590.15 220.281Z" fill="white"/>
<path d="M745.214 267.743C745.214 271.362 744.978 274.631 744.506 277.55H670.019C670.609 285.256 673.498 291.445 678.688 296.115C683.878 300.785 690.248 303.12 697.797 303.12C708.648 303.12 716.315 298.625 720.797 289.635H742.56C739.611 298.508 734.244 305.806 726.459 311.527C718.792 317.131 709.238 319.933 697.797 319.933C688.478 319.933 680.104 317.89 672.673 313.804C665.36 309.6 659.58 303.763 655.334 296.29C651.205 288.701 649.141 279.944 649.141 270.019C649.141 260.095 651.146 251.397 655.157 243.924C659.285 236.335 665.006 230.497 672.319 226.41C679.75 222.324 688.242 220.281 697.797 220.281C706.997 220.281 715.195 222.266 722.39 226.235C729.585 230.205 735.188 235.809 739.198 243.048C743.208 250.171 745.214 258.402 745.214 267.743ZM724.159 261.438C724.041 254.082 721.387 248.186 716.197 243.749C711.007 239.312 704.579 237.094 696.912 237.094C689.953 237.094 683.996 239.312 679.042 243.749C674.088 248.069 671.139 253.965 670.196 261.438H724.159Z" fill="white"/>
<path d="M514.015 420.948H555.593V437.061H493.845L494.079 315.341H514.015V420.948Z" fill="white"/>
<path d="M565.737 388.373C565.737 378.682 567.742 370.1 571.753 362.628C575.881 355.155 581.425 349.376 588.384 345.289C595.461 341.086 603.246 338.984 611.739 338.984C619.406 338.984 626.07 340.502 631.732 343.538C637.511 346.457 642.112 350.135 645.532 354.572V340.561H665.879V437.061H645.532V422.7C642.112 427.253 637.452 431.048 631.555 434.084C625.657 437.119 618.934 438.637 611.385 438.637C603.01 438.637 595.343 436.536 588.384 432.332C581.425 428.012 575.881 422.058 571.753 414.468C567.742 406.762 565.737 398.064 565.737 388.373ZM645.532 388.723C645.532 382.068 644.117 376.289 641.286 371.385C638.573 366.481 634.975 362.745 630.493 360.176C626.011 357.607 621.175 356.323 615.985 356.323C610.795 356.323 605.959 357.607 601.477 360.176C596.995 362.628 593.338 366.306 590.507 371.21C587.794 375.997 586.438 381.718 586.438 388.373C586.438 395.028 587.794 400.866 590.507 405.887C593.338 410.907 596.995 414.76 601.477 417.446C606.077 420.014 610.913 421.299 615.985 421.299C621.175 421.299 626.011 420.014 630.493 417.446C634.975 414.877 638.573 411.141 641.286 406.237C644.117 401.216 645.532 395.378 645.532 388.723Z" fill="white"/>
<path d="M712.541 354.922C715.962 350.252 720.621 346.457 726.519 343.538C732.534 340.502 739.199 338.984 746.512 338.984C755.122 338.984 762.907 341.028 769.866 345.114C776.825 349.201 782.31 355.039 786.321 362.628C790.331 370.1 792.336 378.682 792.336 388.373C792.336 398.064 790.331 406.762 786.321 414.468C782.31 422.058 776.767 428.012 769.689 432.332C762.73 436.536 755.004 438.637 746.512 438.637C738.963 438.637 732.239 437.178 726.342 434.259C720.562 431.34 715.962 427.604 712.541 423.05V437.061H692.371V307.46H712.541V354.922ZM771.812 388.373C771.812 381.718 770.397 375.997 767.566 371.21C764.853 366.306 761.197 362.628 756.597 360.176C752.114 357.607 747.278 356.323 742.088 356.323C737.016 356.323 732.18 357.607 727.58 360.176C723.098 362.745 719.441 366.481 716.611 371.385C713.898 376.289 712.541 382.068 712.541 388.723C712.541 395.378 713.898 401.216 716.611 406.237C719.441 411.141 723.098 414.877 727.58 417.446C732.18 420.014 737.016 421.299 742.088 421.299C747.278 421.299 752.114 420.014 756.597 417.446C761.197 414.76 764.853 410.907 767.566 405.887C770.397 400.866 771.812 395.028 771.812 388.373Z" fill="white"/>
<path d="M847.668 438.637C840.001 438.637 833.101 437.295 826.967 434.609C820.952 431.807 816.175 428.071 812.636 423.4C809.097 418.613 807.21 413.301 806.974 407.463H827.852C828.206 411.549 830.152 414.994 833.691 417.796C837.347 420.481 841.888 421.824 847.314 421.824C852.976 421.824 857.34 420.773 860.407 418.672C863.592 416.453 865.184 413.651 865.184 410.265C865.184 406.646 863.415 403.96 859.876 402.209C856.455 400.457 850.971 398.531 843.422 396.429C836.109 394.444 830.152 392.518 825.552 390.65C820.952 388.782 816.941 385.921 813.521 382.068C810.218 378.215 808.567 373.136 808.567 366.831C808.567 361.694 810.1 357.024 813.167 352.82C816.234 348.5 820.598 345.114 826.26 342.662C832.039 340.21 838.645 338.984 846.076 338.984C857.163 338.984 866.069 341.787 872.792 347.391C879.633 352.879 883.29 360.409 883.762 369.984H863.592C863.238 365.664 861.468 362.219 858.284 359.651C855.099 357.082 850.794 355.798 845.368 355.798C840.06 355.798 835.991 356.79 833.16 358.775C830.329 360.76 828.913 363.387 828.913 366.656C828.913 369.225 829.857 371.385 831.744 373.136C833.632 374.887 835.932 376.289 838.645 377.339C841.358 378.273 845.368 379.499 850.676 381.017C857.753 382.885 863.533 384.812 868.015 386.797C872.615 388.665 876.566 391.467 879.869 395.203C883.172 398.94 884.882 403.902 885 410.09C885 415.578 883.467 420.481 880.4 424.801C877.333 429.121 872.969 432.507 867.307 434.959C861.763 437.411 855.217 438.637 847.668 438.637Z" fill="white"/>
<path d="M513.781 315.659C513.781 315.659 514.297 316.502 514.062 316.892C513.827 317.281 513.216 317.443 512.841 317.217C512.465 316.99 512.324 316.373 512.559 315.984C512.794 315.595 513.405 315.432 513.781 315.659Z" fill="white"/>
<path d="M506.417 178.043C503.719 176.414 500.163 177.359 498.475 180.154C496.787 182.949 497.607 186.536 500.305 188.165C503.004 189.795 506.56 188.85 508.248 186.054C509.936 183.259 509.116 179.672 506.417 178.043Z" fill="white"/>
<path d="M473.816 117.459C478.577 120.334 479.985 126.496 477.007 131.428C474.03 136.359 467.795 137.907 463.159 135.108C458.523 132.309 456.99 126.071 459.967 121.139C462.945 116.208 469.18 114.66 473.816 117.459Z" fill="white"/>
<path d="M425.061 71.0192C431.827 75.1043 433.845 83.9376 429.693 90.8156C425.54 97.6937 416.783 100.021 410.017 95.9358C403.251 91.8507 401.233 83.0174 405.386 76.1394C409.538 69.2614 418.295 66.9341 425.061 71.0192Z" fill="white"/>
<path d="M365.438 42.983C374.083 48.2029 376.837 59.7824 371.43 68.7368C366.024 77.6912 354.619 80.7221 345.849 75.4265C337.078 70.131 334.45 58.6272 339.856 49.6728C345.263 40.7184 356.667 37.6875 365.438 42.983Z" fill="white"/>
<path d="M300.915 35.7259C311.565 42.1562 314.929 56.4061 308.347 67.3071C301.765 78.2082 287.713 81.9427 276.938 75.4368C266.163 68.9308 262.924 54.7564 269.506 43.8554C276.088 32.9544 290.14 29.2199 300.915 35.7259Z" fill="white"/>
<path d="M237.572 50.7819C249.726 58.1201 253.387 74.1432 245.865 86.6015C238.343 99.0598 222.458 103.281 210.305 95.9433C198.151 88.6052 194.49 72.5821 202.012 60.1238C209.534 47.6655 225.419 43.4438 237.572 50.7819Z" fill="white"/>
<path d="M181.592 86.4026C194.623 94.2703 198.644 111.396 190.573 124.763C182.503 138.13 165.474 142.546 152.444 134.679C139.413 126.811 135.392 109.685 143.463 96.3183C151.533 82.9516 168.562 78.535 181.592 86.4026Z" fill="white"/>
<path d="M138.806 138.655C152.213 146.749 156.249 164.416 147.944 178.172C139.638 191.928 121.999 196.507 108.718 188.488C95.4366 180.469 91.2747 162.727 99.5804 148.971C107.886 135.215 125.525 130.636 138.806 138.655Z" fill="white"/>
<path d="M122.479 340.416C133.129 346.846 136.321 360.815 129.739 371.716C123.157 382.617 109.183 386.222 98.6587 379.867C88.134 373.513 84.817 359.468 91.3989 348.567C97.9808 337.666 111.954 334.061 122.479 340.416Z" fill="white"/>
<path d="M155.85 400.585C164.495 405.805 167.077 417.103 161.749 425.928C156.42 434.753 145.094 437.654 136.574 432.509C128.054 427.365 125.348 415.991 130.676 407.167C136.004 398.342 147.33 395.441 155.85 400.585Z" fill="white"/>
<path d="M205.175 446.311C198.601 442.342 189.974 444.585 185.906 451.323C181.839 458.06 183.87 466.739 190.444 470.708C197.018 474.677 205.644 472.433 209.712 465.696C213.78 458.959 211.748 450.28 205.175 446.311Z" fill="white"/>
<path d="M265.198 473.514C260.631 470.757 254.613 472.356 251.757 477.086C248.901 481.817 250.288 487.887 254.855 490.644C259.422 493.402 265.44 491.803 268.296 487.072C271.152 482.342 269.765 476.272 265.198 473.514Z" fill="white"/>
<path d="M329.607 479.639C327.047 478.093 323.673 478.99 322.072 481.642C320.471 484.294 321.249 487.697 323.809 489.242C326.369 490.788 329.743 489.892 331.344 487.24C332.945 484.588 332.168 481.185 329.607 479.639Z" fill="white"/>
<path d="M392.857 463.648C391.68 462.938 390.13 463.349 389.395 464.568C388.659 465.786 389.016 467.35 390.193 468.06C391.369 468.77 392.919 468.358 393.655 467.14C394.39 465.922 394.033 464.358 392.857 463.648Z" fill="white"/>
</svg>
