<?xml version="1.0" encoding="UTF-8"?><svg id="Layer_2" xmlns="http://www.w3.org/2000/svg" viewBox="0 0 54 60"><defs><style>.cls-1{fill:#fa4616;}</style></defs><g id="Layer_1-2"><g><path class="cls-1" d="M48.37,53.74c-.21,0-.38-.17-.38-.38s.17-.38,.38-.38,.38,.17,.38,.38-.17,.38-.38,.38Z"/><path class="cls-1" d="M42.46,57.32c-.33,0-.6-.26-.6-.59s.27-.59,.6-.59,.6,.26,.6,.59-.27,.59-.6,.59Z"/><path class="cls-1" d="M35.92,59.44c-.45,0-.81-.36-.81-.8s.36-.8,.81-.8,.81,.36,.81,.8-.36,.8-.81,.8Z"/><ellipse class="cls-1" cx="29.12" cy="58.99" rx="1.02" ry="1.01"/><path class="cls-1" d="M22.41,59c-.68,0-1.23-.55-1.23-1.23s.55-1.23,1.23-1.23,1.23,.55,1.23,1.23-.55,1.23-1.23,1.23Z"/><path class="cls-1" d="M16.17,56.48c-.8,0-1.45-.64-1.45-1.44s.65-1.44,1.45-1.44,1.45,.64,1.45,1.44-.65,1.44-1.45,1.44Z"/><ellipse class="cls-1" cx="10.74" cy="50.95" rx="1.65" ry="1.64"/><path class="cls-1" d="M6.41,47.5c-.98,0-1.78-.79-1.78-1.76s.8-1.76,1.78-1.76,1.78,.79,1.78,1.76-.8,1.76-1.78,1.76Z"/><path class="cls-1" d="M3.41,41.52c-1.03,0-1.87-.83-1.87-1.86s.84-1.86,1.87-1.86,1.87,.83,1.87,1.86-.84,1.86-1.87,1.86Z"/><path class="cls-1" d="M1.91,34.96c-1.06,0-1.91-.85-1.91-1.9s.86-1.9,1.91-1.9,1.91,.85,1.91,1.9-.86,1.9-1.91,1.9Z"/><path class="cls-1" d="M1.99,28.19c-1.06,0-1.91-.85-1.91-1.9s.86-1.9,1.91-1.9,1.91,.85,1.91,1.9-.86,1.9-1.91,1.9Z"/><path class="cls-1" d="M3.64,21.58c-1.03,0-1.87-.83-1.87-1.85s.84-1.86,1.87-1.86,1.87,.83,1.87,1.86-.84,1.85-1.87,1.85Z"/><path class="cls-1" d="M6.79,15.48c-.98,0-1.77-.79-1.77-1.76s.79-1.76,1.77-1.76,1.77,.79,1.77,1.76-.79,1.76-1.77,1.76Z"/><ellipse class="cls-1" cx="11.25" cy="8.6" rx="1.64" ry="1.63"/><path class="cls-1" d="M16.77,6.07c-.79,0-1.44-.64-1.44-1.43s.64-1.43,1.44-1.43,1.44,.64,1.44,1.43-.64,1.43-1.44,1.43Z"/><ellipse class="cls-1" cx="23.07" cy="2.06" rx="1.22" ry="1.21"/><path class="cls-1" d="M29.81,2.01c-.56,0-1.01-.45-1.01-1s.45-1,1.01-1,1.01,.45,1.01,1-.45,1-1.01,1Z"/><path class="cls-1" d="M36.61,2.3c-.44,0-.79-.35-.79-.79s.36-.79,.79-.79,.79,.35,.79,.79-.36,.79-.79,.79Z"/><path class="cls-1" d="M43.1,4.15c-.32,0-.58-.26-.58-.58s.26-.58,.58-.58,.58,.26,.58,.58-.26,.58-.58,.58Z"/><path class="cls-1" d="M48.93,7.44c-.2,0-.37-.16-.37-.36s.16-.36,.37-.36,.37,.16,.37,.36-.16,.36-.37,.36Z"/><path class="cls-1" d="M53.79,12.03c-.12,0-.21-.09-.21-.21s.09-.21,.21-.21,.21,.09,.21,.21-.09,.21-.21,.21Z"/><circle class="cls-1" cx="47.16" cy="48.04" r=".3"/><path class="cls-1" d="M41.49,52.34c-.31,0-.56-.25-.56-.55s.25-.55,.56-.55,.56,.25,.56,.55-.25,.55-.56,.55Z"/><path class="cls-1" d="M35.01,54.63c-.45,0-.81-.36-.81-.81s.36-.81,.81-.81,.81,.36,.81,.81-.36,.81-.81,.81Z"/><ellipse class="cls-1" cx="28.19" cy="53.99" rx="1.07" ry="1.06"/><path class="cls-1" d="M21.6,53.59c-.73,0-1.32-.59-1.32-1.32s.59-1.31,1.32-1.31,1.32,.59,1.32,1.31-.59,1.32-1.32,1.32Z"/><path class="cls-1" d="M15.75,50.38c-.87,0-1.58-.7-1.58-1.57s.71-1.57,1.58-1.57,1.58,.7,1.58,1.57-.71,1.57-1.58,1.57Z"/><path class="cls-1" d="M11.1,45.62c-.97,0-1.75-.78-1.75-1.74s.79-1.74,1.75-1.74,1.75,.78,1.75,1.74-.79,1.74-1.75,1.74Z"/><path class="cls-1" d="M8,39.72c-1.03,0-1.87-.83-1.87-1.86s.84-1.86,1.87-1.86,1.87,.83,1.87,1.86-.84,1.86-1.87,1.86Z"/><path class="cls-1" d="M6.72,33.12c-1.06,0-1.92-.86-1.92-1.91s.86-1.91,1.92-1.91,1.92,.86,1.92,1.91-.86,1.91-1.92,1.91Z"/><path class="cls-1" d="M7.33,26.36c-1.05,0-1.89-.84-1.89-1.88s.85-1.88,1.89-1.88,1.89,.84,1.89,1.88-.85,1.88-1.89,1.88Z"/><ellipse class="cls-1" cx="9.81" cy="18.17" rx="1.82" ry="1.81"/><ellipse class="cls-1" cx="13.95" cy="12.8" rx="1.67" ry="1.65"/><path class="cls-1" d="M19.42,10.2c-.79,0-1.43-.64-1.43-1.42s.64-1.42,1.43-1.42,1.43,.64,1.43,1.42-.64,1.42-1.43,1.42Z"/><path class="cls-1" d="M25.8,7.59c-.65,0-1.17-.52-1.17-1.16s.52-1.16,1.17-1.16,1.17,.52,1.17,1.16-.52,1.16-1.17,1.16Z"/><path class="cls-1" d="M32.6,6.83c-.5,0-.91-.4-.91-.91s.41-.91,.91-.91,.91,.41,.91,.91-.41,.91-.91,.91Z"/><path class="cls-1" d="M39.27,7.96c-.36,0-.65-.29-.65-.65s.29-.65,.65-.65,.65,.29,.65,.65-.29,.65-.65,.65Z"/><circle class="cls-1" cx="45.28" cy="10.48" r=".4"/><path class="cls-1" d="M50.18,15.38c-.11,0-.2-.09-.2-.2s.09-.2,.2-.2,.2,.09,.2,.2-.09,.2-.2,.2Z"/><circle class="cls-1" cx="45.74" cy="42.49" r=".22"/><circle class="cls-1" cx="40.5" cy="46.78" r=".49"/><path class="cls-1" d="M34.08,49.82c-.45,0-.82-.36-.82-.81s.37-.81,.82-.81,.82,.36,.82,.81-.37,.81-.82,.81Z"/><ellipse class="cls-1" cx="27.28" cy="48.9" rx="1.14" ry="1.13"/><path class="cls-1" d="M20.93,47.9c-.81,0-1.46-.65-1.46-1.45s.65-1.45,1.46-1.45,1.46,.65,1.46,1.45-.65,1.45-1.46,1.45Z"/><path class="cls-1" d="M15.83,43.7c-.95,0-1.72-.77-1.72-1.71s.77-1.71,1.72-1.71,1.72,.77,1.72,1.71-.77,1.71-1.72,1.71Z"/><path class="cls-1" d="M12.6,37.91c-1.03,0-1.87-.83-1.87-1.86s.84-1.86,1.87-1.86,1.87,.83,1.87,1.86-.84,1.86-1.87,1.86Z"/><path class="cls-1" d="M11.63,31.29c-1.07,0-1.93-.86-1.93-1.92s.86-1.92,1.93-1.92,1.93,.86,1.93,1.92-.86,1.92-1.93,1.92Z"/><path class="cls-1" d="M13.04,24.61c-1.03,0-1.86-.83-1.86-1.85s.83-1.85,1.86-1.85,1.86,.83,1.86,1.85-.83,1.85-1.86,1.85Z"/><path class="cls-1" d="M16.68,18.74c-.94,0-1.7-.75-1.7-1.68s.76-1.68,1.7-1.68,1.7,.75,1.7,1.68-.76,1.68-1.7,1.68Z"/><path class="cls-1" d="M22.06,14.34c-.78,0-1.41-.63-1.41-1.4s.63-1.4,1.41-1.4,1.41,.63,1.41,1.4-.63,1.4-1.41,1.4Z"/><path class="cls-1" d="M28.55,12.01c-.6,0-1.09-.48-1.09-1.08s.49-1.08,1.09-1.08,1.09,.48,1.09,1.08-.49,1.08-1.09,1.08Z"/><path class="cls-1" d="M35.34,12.02c-.42,0-.77-.34-.77-.76s.34-.76,.77-.76,.77,.34,.77,.76-.34,.76-.77,.76Z"/><path class="cls-1" d="M41.59,14.34c-.24,0-.44-.2-.44-.44s.2-.44,.44-.44,.44,.2,.44,.44-.2,.44-.44,.44Z"/><circle class="cls-1" cx="46.54" cy="18.53" r=".19"/><path class="cls-1" d="M17.26,34.52s-.06-.03-.06-.06,.03-.06,.06-.06,.06,.03,.06,.06-.03,.06-.06,.06Z"/><path class="cls-1" d="M19.33,38.66c-.1,0-.18-.08-.18-.18s.08-.18,.18-.18,.18,.08,.18,.18-.08,.18-.18,.18Z"/><circle class="cls-1" cx="22.55" cy="41.65" r=".39"/><path class="cls-1" d="M26.6,44.35c-.38,0-.68-.3-.68-.68s.31-.68,.68-.68,.68,.3,.68,.68-.31,.68-.68,.68Z"/><path class="cls-1" d="M31.09,45.31c-.54,0-.97-.43-.97-.96s.43-.96,.97-.96,.97,.43,.97,.96-.43,.96-.97,.96Z"/><path class="cls-1" d="M35.57,44.86c-.69,0-1.26-.56-1.26-1.25s.56-1.25,1.26-1.25,1.26,.56,1.26,1.25-.56,1.25-1.26,1.25Z"/><path class="cls-1" d="M39.6,43.07c-.85,0-1.55-.69-1.55-1.53s.69-1.53,1.55-1.53,1.55,.69,1.55,1.53-.69,1.53-1.55,1.53Z"/><path class="cls-1" d="M42.77,40.06c-.97,0-1.75-.78-1.75-1.74s.78-1.74,1.75-1.74,1.75,.78,1.75,1.74-.78,1.74-1.75,1.74Z"/><path class="cls-1" d="M44.79,36.14c-1.04,0-1.88-.83-1.88-1.86s.84-1.86,1.88-1.86,1.88,.83,1.88,1.86-.84,1.86-1.88,1.86Z"/><path class="cls-1" d="M45.44,31.73c-1.07,0-1.93-.86-1.93-1.92s.87-1.92,1.93-1.92,1.93,.86,1.93,1.92-.87,1.92-1.93,1.92Z"/><ellipse class="cls-1" cx="44.66" cy="25.37" rx="1.87" ry="1.86"/><path class="cls-1" d="M42.54,23.12c-.96,0-1.75-.78-1.75-1.73s.78-1.73,1.75-1.73,1.75,.78,1.75,1.73-.78,1.73-1.75,1.73Z"/><path class="cls-1" d="M39.27,19.78c-.85,0-1.53-.68-1.53-1.52s.69-1.52,1.53-1.52,1.53,.68,1.53,1.52-.69,1.52-1.53,1.52Z"/><path class="cls-1" d="M35.2,17.52c-.69,0-1.24-.55-1.24-1.23s.56-1.23,1.24-1.23,1.24,.55,1.24,1.23-.56,1.23-1.24,1.23Z"/><ellipse class="cls-1" cx="30.7" cy="15.68" rx=".95" ry=".94"/><ellipse class="cls-1" cx="26.23" cy="16.47" rx=".66" ry=".66"/><circle class="cls-1" cx="22.24" cy="18.61" r=".37"/><circle class="cls-1" cx="19.11" cy="21.87" r=".17"/><path class="cls-1" d="M17.15,25.98s-.05-.02-.05-.05,.02-.05,.05-.05,.05,.02,.05,.05-.02,.05-.05,.05Z"/></g></g></svg>